<svg width="1152" height="461" xmlns="http://www.w3.org/2000/svg" xmlns:xlink="http://www.w3.org/1999/xlink" overflow="hidden"><defs><clipPath id="clip0"><rect x="0" y="0" width="1152" height="461"/></clipPath></defs><g clip-path="url(#clip0)"><rect x="0" y="0" width="1152" height="461.167" fill="#FFFFFF"/><path d="M91 69.025 196.377 99.8453" stroke="#000000" stroke-width="4" stroke-miterlimit="8" fill="none" fill-rule="evenodd"/><path d="M0 0 85.7302 91.0884" stroke="#000000" stroke-width="4" stroke-miterlimit="8" fill="none" fill-rule="evenodd" transform="matrix(1 0 0 -1.00036 107 191.158)"/><path d="M310.163 227.822 107 188.068" stroke="#000000" stroke-width="4" stroke-miterlimit="8" fill="none" fill-rule="evenodd"/><path d="M0 0 52.6884 105.365" stroke="#000000" stroke-width="4" stroke-miterlimit="8" fill="none" fill-rule="evenodd" transform="matrix(1 0 0 -1.00036 55 294.471)"/><path d="M0 0 211.423 133.836" stroke="#000000" stroke-width="4" stroke-miterlimit="8" fill="none" fill-rule="evenodd" transform="matrix(-1 0 0 1.00036 436.423 74.0268)"/><path d="M331 141.051 469.084 218.49" stroke="#000000" stroke-width="4" stroke-miterlimit="8" fill="none" fill-rule="evenodd"/><path d="M0 0 113.86 163.423" stroke="#000000" stroke-width="4" stroke-miterlimit="8" fill="none" fill-rule="evenodd" transform="matrix(-1 0 0 1.00036 310.86 231.084)"/><path d="M311 231.084 380.656 380.272" stroke="#000000" stroke-width="4" stroke-miterlimit="8" fill="none" fill-rule="evenodd"/><path d="M0 0 187.535 14.2884" stroke="#000000" stroke-width="4" stroke-miterlimit="8" fill="none" fill-rule="evenodd" transform="matrix(1 0 0 -1.00036 291 383.427)"/><path d="M295 384.139 304.823 446.226" stroke="#000000" stroke-width="4" stroke-miterlimit="8" fill="none" fill-rule="evenodd"/><path d="M347 377.136 356.823 439.224" stroke="#000000" stroke-width="4" stroke-miterlimit="8" fill="none" fill-rule="evenodd"/><path d="M406 374.135 415.823 436.223" stroke="#000000" stroke-width="4" stroke-miterlimit="8" fill="none" fill-rule="evenodd"/><path d="M477 371.134 486.823 433.222" stroke="#000000" stroke-width="4" stroke-miterlimit="8" fill="none" fill-rule="evenodd"/><path d="M0 0 27.4605 148.912" stroke="#000000" stroke-width="4" stroke-miterlimit="8" fill="none" fill-rule="evenodd" transform="matrix(-1 0 0 1.00036 469.46 221.08)"/><path d="M0 0 147.572 94.6605" stroke="#000000" stroke-width="4" stroke-miterlimit="8" fill="none" fill-rule="evenodd" transform="matrix(1 0 0 -1.00036 469 217.739)"/><path d="M469 218.079 664.349 294.46" stroke="#000000" stroke-width="4" stroke-miterlimit="8" fill="none" fill-rule="evenodd"/><path d="M551 28.0101 617.084 123.598" stroke="#000000" stroke-width="4" stroke-miterlimit="8" fill="none" fill-rule="evenodd"/><path d="M0 0 23.2187 100.465" stroke="#000000" stroke-width="4" stroke-miterlimit="8" fill="none" fill-rule="evenodd" transform="matrix(-1 0 0 1.00036 640.219 23.0083)"/><path d="M0 0 81.4884 49.786" stroke="#000000" stroke-width="4" stroke-miterlimit="8" fill="none" fill-rule="evenodd" transform="matrix(-1 0 0 1.00036 698.488 70.0253)"/><path d="M0 0 108.949 99.3018" stroke="#000000" stroke-width="4" stroke-miterlimit="8" fill="none" fill-rule="evenodd" transform="matrix(-1 0 0 1.00036 773.949 196.071)"/><path d="M782.433 352.67 665 296.107" stroke="#000000" stroke-width="4" stroke-miterlimit="8" fill="none" fill-rule="evenodd"/><path d="M273 102.037 302.47 161.445" stroke="#000000" stroke-width="4" stroke-miterlimit="8" fill="none" fill-rule="evenodd"/><path d="M0 0 35.8325 27.6837" stroke="#000000" stroke-width="4" stroke-miterlimit="8" fill="none" fill-rule="evenodd" transform="matrix(1 0 0 -1.00036 357 330.803)"/><path d="M519 186.067 578.721 200.761" stroke="#000000" stroke-width="4" stroke-miterlimit="8" fill="none" fill-rule="evenodd"/><path d="M250.5 93.0337C250.5 83.3652 258.335 75.5274 268 75.5274 277.665 75.5274 285.5 83.3652 285.5 93.0337 285.5 102.702 277.665 110.54 268 110.54 258.335 110.54 250.5 102.702 250.5 93.0337Z" stroke="#2F528F" stroke-width="1.33333" stroke-miterlimit="8" fill="#4472C4" fill-rule="evenodd"/><path d="M387.5 299.108C387.5 289.44 395.559 281.602 405.5 281.602 415.441 281.602 423.5 289.44 423.5 299.108 423.5 308.777 415.441 316.615 405.5 316.615 395.559 316.615 387.5 308.777 387.5 299.108Z" stroke="#2F528F" stroke-width="1.33333" stroke-miterlimit="8" fill="#4472C4" fill-rule="evenodd"/><path d="M570.5 203.574C570.5 193.629 578.559 185.567 588.5 185.567 598.441 185.567 606.5 193.629 606.5 203.574 606.5 213.518 598.441 221.58 588.5 221.58 578.559 221.58 570.5 213.518 570.5 203.574Z" stroke="#2F528F" stroke-width="1.33333" stroke-miterlimit="8" fill="#4472C4" fill-rule="evenodd"/><path d="M443 143.052C443 133.107 451.059 125.045 461 125.045 470.941 125.045 479 133.107 479 143.052 479 152.996 470.941 161.058 461 161.058 451.059 161.058 443 152.996 443 143.052Z" fill="#FFC000" fill-rule="evenodd"/><path d="M461 161.058 469.344 213.754" stroke="#000000" stroke-width="4" stroke-miterlimit="8" fill="none" fill-rule="evenodd"/><path d="M443.563 143.449 334 141.051" stroke="#000000" stroke-width="4" stroke-miterlimit="8" fill="none" fill-rule="evenodd"/><path d="M0 0 137.821 72.9665" stroke="#000000" stroke-width="4" stroke-miterlimit="8" fill="none" fill-rule="evenodd" transform="matrix(-1 0 0 1.00036 448.821 156.056)"/><path d="M834 135.049C834 125.104 842.059 117.042 852 117.042 861.941 117.042 870 125.104 870 135.049 870 144.994 861.941 153.055 852 153.055 842.059 153.055 834 144.994 834 135.049Z" fill="#FFC000" fill-rule="evenodd"/><path d="M835.5 237.086C835.5 227.417 843.559 219.579 853.5 219.579 863.441 219.579 871.5 227.417 871.5 237.086 871.5 246.754 863.441 254.592 853.5 254.592 843.559 254.592 835.5 246.754 835.5 237.086Z" stroke="#2F528F" stroke-width="1.33333" stroke-miterlimit="8" fill="#4472C4" fill-rule="evenodd"/><text font-family="Calibri,Calibri_MSFontService,sans-serif" font-weight="400" font-size="48" transform="matrix(1 0 0 1.00036 886.077 147)">Controller<tspan font-size="48" x="0" y="77.9718">Verifier</tspan><tspan font-size="48" x="0" y="135.951">server</tspan></text><rect x="812" y="80.0289" width="288" height="236.085" stroke="#000000" stroke-width="4" stroke-miterlimit="8" fill="none"/></g></svg>