<svg width="864" height="720" xmlns="http://www.w3.org/2000/svg" xmlns:xlink="http://www.w3.org/1999/xlink" overflow="hidden"><defs><clipPath id="clip0"><rect x="0" y="0" width="864" height="720"/></clipPath></defs><g clip-path="url(#clip0)"><rect x="0" y="0" width="864" height="720" fill="#FFFFFF"/><path d="M22 131C22 102.281 45.5051 79 74.5 79 103.495 79 127 102.281 127 131 127 159.719 103.495 183 74.5 183 45.5051 183 22 159.719 22 131Z" fill="#385723" fill-rule="evenodd"/><text fill="#FFFFFF" font-family="Calibri,Calibri_MSFontService,sans-serif" font-weight="400" font-size="48" transform="translate(50.5734 147)">E0</text><path d="M736 131C736 102.281 759.505 79 788.5 79 817.495 79 841 102.281 841 131 841 159.719 817.495 183 788.5 183 759.505 183 736 159.719 736 131Z" fill="#385723" fill-rule="evenodd"/><text fill="#FFFFFF" font-family="Calibri,Calibri_MSFontService,sans-serif" font-weight="400" font-size="48" transform="translate(764.368 147)">E3</text><path d="M260 131C260 102.281 283.505 79 312.5 79 341.495 79 365 102.281 365 131 365 159.719 341.495 183 312.5 183 283.505 183 260 159.719 260 131Z" fill-rule="evenodd"/><text fill="#FFFFFF" font-family="Calibri,Calibri_MSFontService,sans-serif" font-weight="400" font-size="48" transform="translate(287.255 147)">R1</text><path d="M498 131C498 102.281 521.505 79 550.5 79 579.495 79 603 102.281 603 131 603 159.719 579.495 183 550.5 183 521.505 183 498 159.719 498 131Z" fill-rule="evenodd"/><text fill="#FFFFFF" font-family="Calibri,Calibri_MSFontService,sans-serif" font-weight="400" font-size="48" transform="translate(525.187 147)">R2</text><path d="M260 361C260 332.281 283.505 309 312.5 309 341.495 309 365 332.281 365 361 365 389.719 341.495 413 312.5 413 283.505 413 260 389.719 260 361Z" fill-rule="evenodd"/><text fill="#FFFFFF" font-family="Calibri,Calibri_MSFontService,sans-serif" font-weight="400" font-size="48" transform="translate(287.255 377)">R4</text><path d="M498 362C498 333.281 521.505 310 550.5 310 579.495 310 603 333.281 603 362 603 390.719 579.495 414 550.5 414 521.505 414 498 390.719 498 362Z" fill-rule="evenodd"/><text fill="#FFFFFF" font-family="Calibri,Calibri_MSFontService,sans-serif" font-weight="400" font-size="48" transform="translate(525.187 378)">R5</text><path d="M260 591.5C260 562.505 283.505 539 312.5 539 341.495 539 365 562.505 365 591.5 365 620.495 341.495 644 312.5 644 283.505 644 260 620.495 260 591.5Z" fill="#203864" fill-rule="evenodd"/><text fill="#FFFFFF" font-family="Calibri,Calibri_MSFontService,sans-serif" font-weight="400" font-size="48" transform="translate(298.838 608)">V</text><path d="M498 593C498 564.281 521.505 541 550.5 541 579.495 541 603 564.281 603 593 603 621.719 579.495 645 550.5 645 521.505 645 498 621.719 498 593Z" fill="#7F6000" fill-rule="evenodd"/><text fill="#FFFFFF" font-family="Calibri,Calibri_MSFontService,sans-serif" font-weight="400" font-size="48" transform="translate(537.52 609)">C</text><path d="M196 114.168C196 71.5493 230.549 37 273.168 37L581.832 37C624.451 37 659 71.5493 659 114.168L659 608.832C659 651.451 624.451 686 581.832 686L273.168 686C230.549 686 196 651.451 196 608.832Z" stroke="#000000" stroke-width="8" stroke-miterlimit="8" stroke-dasharray="32 24" fill="none" fill-rule="evenodd"/><text font-family="Calibri,Calibri_MSFontService,sans-serif" font-weight="400" font-size="48" transform="translate(691.262 556)">Inside</text><path d="M659.5 469.5 697.466 507.466" stroke="#000000" stroke-width="3" stroke-miterlimit="8" fill="none" fill-rule="evenodd"/><path d="M127 131 260.335 131" stroke="#000000" stroke-width="6" stroke-miterlimit="8" fill="none" fill-rule="evenodd"/><path d="M0 0 133.335 0.000104987" stroke="#000000" stroke-width="6" stroke-miterlimit="8" fill="none" fill-rule="evenodd" transform="matrix(-1 0 0 1 498.335 131)"/><path d="M0 0 133.335 0.000104987" stroke="#000000" stroke-width="6" stroke-miterlimit="8" fill="none" fill-rule="evenodd" transform="matrix(-1 0 0 1 736.335 131)"/><path d="M312 183 312 308.612" stroke="#000000" stroke-width="6" stroke-miterlimit="8" fill="none" fill-rule="evenodd"/><path d="M0 0 0.000104987 126.448" stroke="#000000" stroke-width="6" stroke-miterlimit="8" fill="none" fill-rule="evenodd" transform="matrix(-1 0 0 1 550 183)"/><path d="M312 413 312 538.612" stroke="#000000" stroke-width="6" stroke-miterlimit="8" fill="none" fill-rule="evenodd"/><path d="M550 414 550 540.448" stroke="#000000" stroke-width="6" stroke-miterlimit="8" fill="none" fill-rule="evenodd"/></g></svg>