<svg width="864" height="672" xmlns="http://www.w3.org/2000/svg" xmlns:xlink="http://www.w3.org/1999/xlink" overflow="hidden"><defs><clipPath id="clip0"><rect x="0" y="0" width="864" height="672"/></clipPath></defs><g clip-path="url(#clip0)"><rect x="0" y="0" width="864" height="672" fill="#FFFFFF"/><path d="M22 130.5C22 101.505 45.5051 78 74.5 78 103.495 78 127 101.505 127 130.5 127 159.495 103.495 183 74.5 183 45.5051 183 22 159.495 22 130.5Z" fill="#385723" fill-rule="evenodd"/><text fill="#FFFFFF" font-family="Calibri,Calibri_MSFontService,sans-serif" font-weight="400" font-size="48" transform="translate(50.5738 147)">E0</text><path d="M736 130.5C736 101.505 759.505 78 788.5 78 817.495 78 841 101.505 841 130.5 841 159.495 817.495 183 788.5 183 759.505 183 736 159.495 736 130.5Z" fill="#385723" fill-rule="evenodd"/><text fill="#FFFFFF" font-family="Calibri,Calibri_MSFontService,sans-serif" font-weight="400" font-size="48" transform="translate(764.369 147)">E3</text><path d="M260 130.5C260 101.505 283.505 78 312.5 78 341.495 78 365 101.505 365 130.5 365 159.495 341.495 183 312.5 183 283.505 183 260 159.495 260 130.5Z" fill-rule="evenodd"/><text fill="#FFFFFF" font-family="Calibri,Calibri_MSFontService,sans-serif" font-weight="400" font-size="48" transform="translate(287.255 147)">R1</text><path d="M498 130.5C498 101.505 521.505 78 550.5 78 579.495 78 603 101.505 603 130.5 603 159.495 579.495 183 550.5 183 521.505 183 498 159.495 498 130.5Z" fill-rule="evenodd"/><text fill="#FFFFFF" font-family="Calibri,Calibri_MSFontService,sans-serif" font-weight="400" font-size="48" transform="translate(525.187 147)">R2</text><path d="M260 361C260 332.281 283.505 309 312.5 309 341.495 309 365 332.281 365 361 365 389.719 341.495 413 312.5 413 283.505 413 260 389.719 260 361Z" fill-rule="evenodd"/><text fill="#FFFFFF" font-family="Calibri,Calibri_MSFontService,sans-serif" font-weight="400" font-size="48" transform="translate(287.255 377)">R4</text><path d="M498 361.5C498 332.505 521.505 309 550.5 309 579.495 309 603 332.505 603 361.5 603 390.495 579.495 414 550.5 414 521.505 414 498 390.495 498 361.5Z" fill-rule="evenodd"/><text fill="#FFFFFF" font-family="Calibri,Calibri_MSFontService,sans-serif" font-weight="400" font-size="48" transform="translate(525.187 378)">R5</text><path d="M260 591C260 562.281 283.505 539 312.5 539 341.495 539 365 562.281 365 591 365 619.719 341.495 643 312.5 643 283.505 643 260 619.719 260 591Z" fill="#203864" fill-rule="evenodd"/><text fill="#FFFFFF" font-family="Calibri,Calibri_MSFontService,sans-serif" font-weight="400" font-size="48" transform="translate(298.839 607)">V</text><path d="M498 592.5C498 563.505 521.505 540 550.5 540 579.495 540 603 563.505 603 592.5 603 621.495 579.495 645 550.5 645 521.505 645 498 621.495 498 592.5Z" fill="#7F6000" fill-rule="evenodd"/><text fill="#FFFFFF" font-family="Calibri,Calibri_MSFontService,sans-serif" font-weight="400" font-size="48" transform="translate(537.52 609)">C<tspan fill="#C00000" font-size="37" x="-156.268" y="-561">12.4 MB</tspan><tspan fill="#000000" font-size="37" x="-29.4485" y="-561">, </tspan><tspan fill="#4472C4" font-size="37" x="-156.268" y="-516">8.44 MB</tspan></text><path d="M127 131 260.335 131" stroke="#000000" stroke-width="6" stroke-miterlimit="8" fill="none" fill-rule="evenodd"/><path d="M0 0 133.335 0.000104987" stroke="#000000" stroke-width="6" stroke-miterlimit="8" fill="none" fill-rule="evenodd" transform="matrix(-1 0 0 1 498.335 131)"/><path d="M0 0 133.335 0.000104987" stroke="#000000" stroke-width="6" stroke-miterlimit="8" fill="none" fill-rule="evenodd" transform="matrix(-1 0 0 1 736.335 131)"/><path d="M312 183 312 308.612" stroke="#000000" stroke-width="6" stroke-miterlimit="8" fill="none" fill-rule="evenodd"/><path d="M0 0 0.000104987 126.448" stroke="#000000" stroke-width="6" stroke-miterlimit="8" fill="none" fill-rule="evenodd" transform="matrix(-1 0 0 1 550 183)"/><path d="M312 413 312 538.612" stroke="#000000" stroke-width="6" stroke-miterlimit="8" fill="none" fill-rule="evenodd"/><path d="M550 414 550 540.448" stroke="#000000" stroke-width="6" stroke-miterlimit="8" fill="none" fill-rule="evenodd"/><text fill="#C00000" font-family="Calibri,Calibri_MSFontService,sans-serif" font-weight="400" font-size="37" transform="translate(619.183 48)">11.7 MB<tspan fill="#000000" font-size="37" x="126.82" y="0">, </tspan><tspan fill="#4472C4" font-size="37" x="0" y="45">0.0</tspan><tspan fill="#4472C4" font-size="37" x="47.5" y="45">5</tspan><tspan fill="#4472C4" font-size="37" x="75" y="45">M</tspan><tspan fill="#4472C4" font-size="37" x="107" y="45">B</tspan><tspan font-size="37" x="-237.931" y="229">0 </tspan>MB<tspan fill="#000000" font-size="37" x="-158.611" y="229">, </tspan><tspan fill="#4472C4" font-size="37" x="-237.931" y="274">7</tspan><tspan fill="#4472C4" font-size="37" x="-210.431" y="274">MB</tspan></text><rect x="664.5" y="449.5" width="161" height="100" stroke="#000000" stroke-width="3" stroke-linejoin="round" stroke-miterlimit="10" fill="none"/><text fill="#C00000" font-family="Calibri,Calibri_MSFontService,sans-serif" font-weight="400" font-size="37" transform="translate(673.964 489)">IP<tspan fill="#000000" font-size="37" x="24.0333" y="0">, </tspan><tspan fill="#4472C4" font-size="37" x="0" y="45">AuthedIP</tspan><tspan font-size="37" x="-55.9363" y="-212">0 </tspan>MB<tspan fill="#000000" font-size="37" x="23.3837" y="-212">, </tspan><tspan fill="#4472C4" font-size="37" x="-55.9363" y="-167">0 </tspan><tspan fill="#4472C4" font-size="37" x="-28.4363" y="-167">MB</tspan></text><path d="M0 0 32.9125 32.9125" stroke="#000000" stroke-width="3" stroke-miterlimit="8" fill="none" fill-rule="evenodd" transform="matrix(-1 0 0 1 376.413 63.5001)"/><path d="M0 0 32.9125 32.9125" stroke="#000000" stroke-width="3" stroke-miterlimit="8" fill="none" fill-rule="evenodd" transform="matrix(-1 0 0 1 376.413 297.5)"/><path d="M0 0 32.9125 32.9125" stroke="#000000" stroke-width="3" stroke-miterlimit="8" fill="none" fill-rule="evenodd" transform="matrix(-1 0 0 1 612.413 63.5001)"/><path d="M0 0 32.9125 32.9125" stroke="#000000" stroke-width="3" stroke-miterlimit="8" fill="none" fill-rule="evenodd" transform="matrix(-1 0 0 1 612.413 297.5)"/></g></svg>